<svg width="14" height="14" viewBox="0 0 14 14" fill="none" xmlns="http://www.w3.org/2000/svg">
<path d="M7.54266 0.163866C7.94845 0.273022 8.29925 0.545495 8.72588 0.875463L8.97335 1.06711C9.17583 1.22293 9.22416 1.25876 9.27249 1.28459C9.32438 1.31281 9.37913 1.33544 9.43581 1.35208C9.4883 1.36791 9.54746 1.37708 9.80077 1.41041L10.1116 1.44957C10.6465 1.5179 11.0865 1.57373 11.4506 1.78287C11.7697 1.96619 12.0339 2.23033 12.2172 2.54947C12.4263 2.91276 12.4822 3.35355 12.5505 3.8885L12.5905 4.19931C12.623 4.45261 12.6322 4.51177 12.648 4.56427C12.6647 4.62093 12.6869 4.67537 12.7147 4.72759C12.7413 4.77592 12.7771 4.82424 12.933 5.02672L13.1246 5.2742C13.4546 5.70083 13.7271 6.05162 13.8362 6.45742C13.9317 6.81218 13.9317 7.18589 13.8362 7.54064C13.7271 7.94644 13.4546 8.29724 13.1246 8.72386L12.933 8.97134C12.7771 9.17382 12.7413 9.22215 12.7155 9.27048C12.6872 9.32269 12.6647 9.37713 12.648 9.43379C12.6322 9.48629 12.623 9.54545 12.5897 9.79876L12.5505 10.1096C12.4822 10.6445 12.4263 11.0845 12.2172 11.4486C12.0338 11.7673 11.7693 12.0318 11.4506 12.2152C11.0873 12.4243 10.6465 12.4802 10.1116 12.5485L9.80077 12.5885C9.54746 12.621 9.4883 12.6301 9.43581 12.646C9.37915 12.6626 9.32471 12.6849 9.27249 12.7126C9.22416 12.7393 9.17583 12.7751 8.97335 12.931L8.72588 13.1226C8.29925 13.4526 7.94845 13.725 7.54266 13.8342C7.1879 13.9297 6.81419 13.9297 6.45943 13.8342C6.05364 13.725 5.70284 13.4526 5.27621 13.1226L5.02874 12.931C4.82626 12.7751 4.77793 12.7393 4.7296 12.7135C4.67771 12.6852 4.62296 12.6626 4.56628 12.646C4.51379 12.6301 4.45463 12.621 4.20132 12.5877L3.89052 12.5485C3.35557 12.4802 2.91561 12.4243 2.55148 12.2152C2.23277 12.0318 1.96828 11.7673 1.78489 11.4486C1.57574 11.0853 1.51991 10.6445 1.45159 10.1096L1.41159 9.79876C1.37909 9.54545 1.36993 9.48629 1.3541 9.43379C1.33772 9.37715 1.31537 9.3224 1.28744 9.27048C1.26077 9.22215 1.22494 9.17382 1.06913 8.97134L0.877477 8.72386C0.547509 8.29724 0.275036 7.94644 0.16588 7.54064C0.0703577 7.18589 0.0703577 6.81218 0.16588 6.45742C0.275036 6.05162 0.547509 5.70083 0.877477 5.2742L1.06913 5.02672C1.22494 4.82424 1.26077 4.77592 1.2866 4.72759C1.31483 4.67569 1.33745 4.62095 1.3541 4.56427C1.36993 4.51177 1.3791 4.45261 1.41243 4.19931L1.45159 3.8885C1.51991 3.35355 1.57574 2.9136 1.78489 2.54947C1.96828 2.23076 2.23277 1.96627 2.55148 1.78287C2.91478 1.57373 3.35557 1.5179 3.89052 1.44957L4.20132 1.40958C4.45463 1.37708 4.51379 1.36791 4.56628 1.35208C4.62293 1.3357 4.67767 1.31336 4.7296 1.28542C4.77793 1.25876 4.82626 1.22293 5.02874 1.06711L5.27621 0.875463C5.70284 0.545495 6.05364 0.273022 6.45943 0.163866C6.81419 0.0683435 7.1879 0.0683435 7.54266 0.163866ZM10.0899 4.74342C9.93365 4.58721 9.72175 4.49945 9.5008 4.49945C9.27985 4.49945 9.06795 4.58721 8.91169 4.74342L6.16779 7.48732L5.0904 6.40992C4.93325 6.25814 4.72276 6.17415 4.50429 6.17605C4.28581 6.17795 4.07682 6.26558 3.92233 6.42007C3.76784 6.57456 3.68021 6.78355 3.67831 7.00203C3.67641 7.22051 3.7604 7.43099 3.91218 7.58814L5.57868 9.25464C5.73494 9.41085 5.94685 9.49861 6.16779 9.49861C6.38874 9.49861 6.60064 9.41085 6.7569 9.25464L10.0899 5.92164C10.2461 5.76538 10.3339 5.55348 10.3339 5.33253C10.3339 5.11158 10.2461 4.89968 10.0899 4.74342Z" fill="#04C900" fill-opacity="0.64"/>
</svg>
