<svg width="11" height="19" viewBox="0 0 11 19" fill="none" xmlns="http://www.w3.org/2000/svg">
<path d="M6.5 7.71216H11L10.5 9.71216H6.5V18.7122H4.5V9.71216H0.5V7.71216H4.5V5.84016C4.5 4.05716 4.686 3.41016 5.034 2.75816C5.37501 2.11397 5.90181 1.58717 6.546 1.24616C7.198 0.898158 7.845 0.712158 9.628 0.712158C10.15 0.712158 10.608 0.762158 11 0.862158V2.71216H9.628C8.304 2.71216 7.901 2.79016 7.49 3.01016C7.186 3.17216 6.96 3.39816 6.798 3.70216C6.578 4.11316 6.5 4.51616 6.5 5.84016V7.71216Z" fill="white"/>
</svg>
