<svg width="21" height="21" viewBox="0 0 21 21" fill="none" xmlns="http://www.w3.org/2000/svg">
<path d="M15.5 1.71216H5.5C4.43913 1.71216 3.42172 2.13359 2.67157 2.88373C1.92143 3.63388 1.5 4.65129 1.5 5.71216V15.7122C1.5 16.773 1.92143 17.7904 2.67157 18.5406C3.42172 19.2907 4.43913 19.7122 5.5 19.7122H15.5C16.5609 19.7122 17.5783 19.2907 18.3284 18.5406C19.0786 17.7904 19.5 16.773 19.5 15.7122V5.71216C19.5 4.65129 19.0786 3.63388 18.3284 2.88373C17.5783 2.13359 16.5609 1.71216 15.5 1.71216Z" stroke="white" stroke-width="1.5" stroke-linejoin="round"/>
<path d="M10.5 14.7122C11.5609 14.7122 12.5783 14.2907 13.3284 13.5406C14.0786 12.7904 14.5 11.773 14.5 10.7122C14.5 9.65129 14.0786 8.63388 13.3284 7.88373C12.5783 7.13359 11.5609 6.71216 10.5 6.71216C9.43913 6.71216 8.42172 7.13359 7.67157 7.88373C6.92143 8.63388 6.5 9.65129 6.5 10.7122C6.5 11.773 6.92143 12.7904 7.67157 13.5406C8.42172 14.2907 9.43913 14.7122 10.5 14.7122V14.7122Z" stroke="white" stroke-width="1.5" stroke-linejoin="round"/>
<path d="M16 6.21216C16.2652 6.21216 16.5196 6.1068 16.7071 5.91926C16.8946 5.73173 17 5.47737 17 5.21216C17 4.94694 16.8946 4.69259 16.7071 4.50505C16.5196 4.31752 16.2652 4.21216 16 4.21216C15.7348 4.21216 15.4804 4.31752 15.2929 4.50505C15.1054 4.69259 15 4.94694 15 5.21216C15 5.47737 15.1054 5.73173 15.2929 5.91926C15.4804 6.1068 15.7348 6.21216 16 6.21216Z" fill="white"/>
</svg>
