<svg width="18" height="19" viewBox="0 0 18 19" fill="none" xmlns="http://www.w3.org/2000/svg">
<path d="M9 6.76216C9.917 5.82516 11.111 5.21216 12.5 5.21216C13.9587 5.21216 15.3576 5.79162 16.3891 6.82307C17.4205 7.85452 18 9.25347 18 10.7122V18.2122H16V10.7122C16 9.7839 15.6313 8.89366 14.9749 8.23728C14.3185 7.58091 13.4283 7.21216 12.5 7.21216C11.5717 7.21216 10.6815 7.58091 10.0251 8.23728C9.36875 8.89366 9 9.7839 9 10.7122V18.2122H7V5.71216H9V6.76216ZM2 3.71216C1.60218 3.71216 1.22064 3.55412 0.93934 3.27282C0.658035 2.99151 0.5 2.60998 0.5 2.21216C0.5 1.81433 0.658035 1.4328 0.93934 1.1515C1.22064 0.870194 1.60218 0.712158 2 0.712158C2.39782 0.712158 2.77936 0.870194 3.06066 1.1515C3.34196 1.4328 3.5 1.81433 3.5 2.21216C3.5 2.60998 3.34196 2.99151 3.06066 3.27282C2.77936 3.55412 2.39782 3.71216 2 3.71216ZM1 5.71216H3V18.2122H1V5.71216Z" fill="white"/>
</svg>
