<svg width="537" height="168" viewBox="0 0 537 168" fill="none" xmlns="http://www.w3.org/2000/svg">
<path d="M82.2852 49.9154H13C6.37258 49.9154 1 55.2879 1 61.9154V155C1 161.627 6.37257 167 13 167H524C530.627 167 536 161.627 536 155V13C536 6.37258 530.627 1 524 1H106.285C99.6578 1 94.2852 6.37257 94.2852 13V37.9154C94.2852 44.5428 88.9126 49.9154 82.2852 49.9154Z" fill="white" stroke="#D4CFCF" stroke-opacity="0.78"/>
<rect x="27" y="1" width="38" height="38" rx="19" fill="#C40002"/>
<g clip-path="url(#clip0_154_103)">
<path fill-rule="evenodd" clip-rule="evenodd" d="M52.2163 10.8233C52.1868 10.7041 52.1261 10.5949 52.0405 10.5069C51.9549 10.4189 51.8474 10.3552 51.7291 10.3224C51.6109 10.2895 51.486 10.2887 51.3672 10.32C51.2485 10.3512 51.1402 10.4135 51.0535 10.5003L48.2814 13.2724C48.1969 13.3571 48.1357 13.4622 48.1039 13.5776C48.0721 13.693 48.0707 13.8146 48.0998 13.9307L48.5988 15.9321L48.5794 15.9515L45.2654 19.2655C45.0818 19.4626 44.9819 19.7232 44.9866 19.9925C44.9914 20.2618 45.1005 20.5187 45.2909 20.7092C45.4814 20.8997 45.7383 21.0088 46.0076 21.0135C46.2769 21.0183 46.5376 20.9183 46.7346 20.7347L50.0514 17.4221L50.0708 17.4013L52.0708 17.9017C52.1869 17.9308 52.3085 17.9294 52.4239 17.8976C52.5393 17.8658 52.6444 17.8046 52.7291 17.7201L55.5012 14.948C55.5884 14.8613 55.651 14.7529 55.6824 14.634C55.7139 14.5151 55.7132 14.39 55.6803 14.2715C55.6474 14.1529 55.5836 14.0453 55.4953 13.9596C55.4071 13.8739 55.2977 13.8132 55.1782 13.7838L52.8095 13.1933L52.2163 10.8233ZM46.4394 11.3499C46.4584 11.6249 46.3675 11.8961 46.1866 12.1041C46.0057 12.312 45.7497 12.4396 45.4747 12.4588C44.0266 12.5591 42.6377 13.0731 41.4732 13.9396C40.3086 14.8061 39.4172 15.9887 38.905 17.347C38.3928 18.7052 38.2813 20.1819 38.5837 21.6016C38.8861 23.0214 39.5898 24.3244 40.611 25.356C41.6323 26.3876 42.9282 27.1043 44.3448 27.421C45.7614 27.7377 47.2392 27.6411 48.6025 27.1426C49.9658 26.6441 51.1574 25.7647 52.0356 24.6089C52.9137 23.4531 53.4417 22.0694 53.5566 20.6224C53.5785 20.3474 53.7087 20.0924 53.9186 19.9135C54.1285 19.7345 54.4009 19.6463 54.6758 19.6681C54.9508 19.69 55.2058 19.8202 55.3847 20.0301C55.5637 20.24 55.652 20.5124 55.6301 20.7873C55.4834 22.6311 54.8106 24.3939 53.6915 25.8665C52.5724 27.339 51.0541 28.4594 49.317 29.0944C47.5799 29.7295 45.6971 29.8526 43.8921 29.449C42.0871 29.0454 40.4359 28.1322 39.1347 26.8179C37.8335 25.5035 36.9369 23.8432 36.5515 22.0343C36.1661 20.2254 36.308 18.3438 36.9605 16.6132C37.613 14.8826 38.7485 13.3756 40.2323 12.2714C41.716 11.1672 43.4855 10.512 45.3306 10.3839C45.6055 10.3648 45.8768 10.4558 46.0847 10.6367C46.2926 10.8176 46.4202 11.075 46.4394 11.3499ZM45.508 15.9224C45.5578 16.0496 45.5821 16.1853 45.5794 16.3218C45.5768 16.4583 45.5473 16.5929 45.4926 16.7181C45.4379 16.8432 45.359 16.9563 45.2606 17.0509C45.1622 17.1455 45.0461 17.2199 44.9189 17.2696C44.4644 17.4479 44.0614 17.7367 43.7465 18.1098C43.4316 18.483 43.2146 18.9287 43.1151 19.4067C43.0157 19.8848 43.037 20.3801 43.177 20.8478C43.3171 21.3156 43.5715 21.7411 43.9172 22.0858C44.263 22.4306 44.6892 22.6837 45.1574 22.8224C45.6256 22.9611 46.1209 22.9809 46.5986 22.8801C47.0764 22.7793 47.5215 22.561 47.8937 22.245C48.2659 21.929 48.5535 21.5252 48.7305 21.0701C48.78 20.9429 48.8541 20.8266 48.9485 20.728C49.0429 20.6294 49.1559 20.5504 49.2808 20.4954C49.4058 20.4405 49.5404 20.4107 49.6769 20.4077C49.8133 20.4048 49.9491 20.4288 50.0763 20.4783C50.2035 20.5278 50.3198 20.6019 50.4184 20.6963C50.517 20.7907 50.596 20.9036 50.651 21.0286C50.7059 21.1536 50.7357 21.2881 50.7387 21.4246C50.7416 21.5611 50.7176 21.6969 50.6681 21.8241C50.3659 22.6012 49.8747 23.2907 49.2389 23.8303C48.6032 24.3699 47.8431 24.7426 47.0272 24.9146C46.2113 25.0866 45.3654 25.0526 44.5659 24.8156C43.7665 24.5786 43.0387 24.1461 42.4484 23.5571C41.8581 22.9682 41.4239 22.2415 41.185 21.4426C40.9461 20.6437 40.9101 19.7979 41.0802 18.9816C41.2503 18.1653 41.6212 17.4042 42.1593 16.7673C42.6974 16.1303 43.3858 15.6375 44.1622 15.3334C44.4188 15.2332 44.7046 15.239 44.957 15.3494C45.2093 15.4599 45.4075 15.666 45.508 15.9224Z" fill="white"/>
</g>
<defs>
<clipPath id="clip0_154_103">
<rect width="19.4043" height="19.4043" fill="white" transform="translate(36.2979 10.2979)"/>
</clipPath>
</defs>
</svg>
