<svg width="38" height="38" viewBox="0 0 38 38" fill="none" xmlns="http://www.w3.org/2000/svg">
<rect width="38" height="38" rx="19" fill="#C40002"/>
<g clip-path="url(#clip0_56_432)">
<path fill-rule="evenodd" clip-rule="evenodd" d="M25.2164 9.82326C25.1868 9.7041 25.1261 9.59494 25.0405 9.50693C24.9549 9.41893 24.8475 9.35524 24.7292 9.32239C24.6109 9.28954 24.486 9.2887 24.3673 9.31996C24.2486 9.35123 24.1403 9.41347 24.0535 9.50032L21.2815 12.2724C21.1969 12.3571 21.1358 12.4622 21.104 12.5776C21.0721 12.693 21.0708 12.8146 21.0999 12.9307L21.5989 14.9321L21.5795 14.9515L18.2655 18.2655C18.0819 18.4626 17.9819 18.7232 17.9867 18.9925C17.9914 19.2618 18.1005 19.5187 18.291 19.7092C18.4814 19.8997 18.7384 20.0088 19.0077 20.0135C19.277 20.0183 19.5376 19.9183 19.7347 19.7347L23.0514 16.4221L23.0708 16.4013L25.0709 16.9017C25.1869 16.9308 25.3086 16.9294 25.424 16.8976C25.5393 16.8658 25.6445 16.8046 25.7292 16.7201L28.5012 13.948C28.5885 13.8613 28.651 13.7529 28.6825 13.634C28.714 13.5151 28.7132 13.39 28.6803 13.2715C28.6475 13.1529 28.5836 13.0453 28.4954 12.9596C28.4072 12.8739 28.2977 12.8132 28.1783 12.7838L25.8096 12.1933L25.2164 9.82326ZM19.4395 10.3499C19.4585 10.6249 19.3676 10.8961 19.1867 11.1041C19.0058 11.312 18.7497 11.4396 18.4748 11.4588C17.0267 11.5591 15.6378 12.0731 14.4732 12.9396C13.3086 13.8061 12.4173 14.9887 11.9051 16.347C11.3929 17.7052 11.2814 19.1819 11.5838 20.6016C11.8862 22.0214 12.5898 23.3244 13.6111 24.356C14.6323 25.3876 15.9283 26.1043 17.3449 26.421C18.7615 26.7377 20.2393 26.6411 21.6026 26.1426C22.9659 25.6441 24.1574 24.7647 25.0356 23.6089C25.9138 22.4531 26.4417 21.0694 26.5567 19.6224C26.5785 19.3474 26.7087 19.0924 26.9186 18.9135C27.1285 18.7345 27.4009 18.6463 27.6759 18.6681C27.9508 18.69 28.2058 18.8202 28.3848 19.0301C28.5638 19.24 28.652 19.5124 28.6301 19.7873C28.4835 21.6311 27.8106 23.3939 26.6915 24.8665C25.5725 26.339 24.0542 27.4594 22.3171 28.0944C20.58 28.7295 18.6971 28.8526 16.8922 28.449C15.0872 28.0454 13.436 27.1322 12.1348 25.8179C10.8335 24.5035 9.93696 22.8432 9.55155 21.0343C9.16614 19.2254 9.30811 17.3438 9.96058 15.6132C10.6131 13.8826 11.7486 12.3756 13.2323 11.2714C14.716 10.1672 16.4856 9.51204 18.3306 9.38389C18.6056 9.36485 18.8768 9.45577 19.0848 9.63667C19.2927 9.81756 19.4203 10.075 19.4395 10.3499ZM18.5081 14.9224C18.5579 15.0496 18.5821 15.1853 18.5795 15.3218C18.5768 15.4583 18.5473 15.5929 18.4926 15.7181C18.4379 15.8432 18.3591 15.9563 18.2607 16.0509C18.1623 16.1455 18.0462 16.2199 17.919 16.2696C17.4644 16.4479 17.0615 16.7367 16.7466 17.1098C16.4316 17.483 16.2146 17.9287 16.1152 18.4067C16.0158 18.8848 16.037 19.3801 16.1771 19.8478C16.3171 20.3156 16.5715 20.7411 16.9173 21.0858C17.2631 21.4306 17.6893 21.6837 18.1574 21.8224C18.6256 21.9611 19.121 21.9809 19.5987 21.8801C20.0765 21.7793 20.5216 21.561 20.8938 21.245C21.266 20.929 21.5536 20.5252 21.7305 20.0701C21.7801 19.9429 21.8541 19.8266 21.9486 19.728C22.043 19.6294 22.1559 19.5504 22.2809 19.4954C22.4059 19.4405 22.5404 19.4107 22.6769 19.4077C22.8134 19.4048 22.9491 19.4288 23.0764 19.4783C23.2036 19.5278 23.3198 19.6019 23.4184 19.6963C23.517 19.7907 23.5961 19.9036 23.651 20.0286C23.706 20.1536 23.7358 20.2881 23.7387 20.4246C23.7417 20.5611 23.7177 20.6969 23.6682 20.8241C23.3659 21.6012 22.8747 22.2907 22.239 22.8303C21.6033 23.3699 20.8431 23.7426 20.0272 23.9146C19.2113 24.0866 18.3654 24.0526 17.566 23.8156C16.7665 23.5786 16.0388 23.1461 15.4485 22.5571C14.8582 21.9682 14.4239 21.2415 14.1851 20.4426C13.9462 19.6437 13.9102 18.7979 14.0803 17.9816C14.2504 17.1653 14.6212 16.4042 15.1594 15.7673C15.6975 15.1303 16.3858 14.6375 17.1622 14.3334C17.4188 14.2332 17.7047 14.239 17.957 14.3494C18.2094 14.4599 18.4075 14.666 18.5081 14.9224Z" fill="white"/>
</g>
<defs>
<clipPath id="clip0_56_432">
<rect width="19.4043" height="19.4043" fill="white" transform="translate(9.29785 9.29785)"/>
</clipPath>
</defs>
</svg>
