<svg width="537" height="168" viewBox="0 0 537 168" fill="none" xmlns="http://www.w3.org/2000/svg">
<path d="M82.2852 49.9154H13C6.37258 49.9154 1 55.2879 1 61.9154V155C1 161.627 6.37257 167 13 167H524C530.627 167 536 161.627 536 155V13C536 6.37258 530.627 1 524 1H106.285C99.6578 1 94.2852 6.37257 94.2852 13V37.9154C94.2852 44.5428 88.9126 49.9154 82.2852 49.9154Z" fill="white" stroke="#D4CFCF" stroke-opacity="0.78"/>
<rect x="27" y="1" width="38" height="38" rx="19" fill="#C40002"/>
<g clip-path="url(#clip0_154_110)">
<path d="M45.5958 13.5318C44.8453 13.5318 44.1255 13.83 43.5948 14.3606C43.0641 14.8913 42.766 15.6111 42.766 16.3616C42.766 17.1121 43.0641 17.8319 43.5948 18.3626C44.1255 18.8933 44.8453 19.1914 45.5958 19.1914C46.3463 19.1914 47.066 18.8933 47.5967 18.3626C48.1274 17.8319 48.4256 17.1121 48.4256 16.3616C48.4256 15.6111 48.1274 14.8913 47.5967 14.3606C47.066 13.83 46.3463 13.5318 45.5958 13.5318ZM41.149 16.3616C41.149 15.1822 41.6175 14.0512 42.4514 13.2172C43.2853 12.3833 44.4164 11.9148 45.5958 11.9148C46.7751 11.9148 47.9062 12.3833 48.7401 13.2172C49.5741 14.0512 50.0426 15.1822 50.0426 16.3616C50.0426 17.541 49.5741 18.672 48.7401 19.506C47.9062 20.3399 46.7751 20.8084 45.5958 20.8084C44.4164 20.8084 43.2853 20.3399 42.4514 19.506C41.6175 18.672 41.149 17.541 41.149 16.3616ZM49.6383 22.8297V25.7678C49.6383 25.9022 49.6718 26.0344 49.7358 26.1525C49.7997 26.2707 49.8921 26.3711 50.0046 26.4445L51.6596 27.5255L53.3146 26.4445C53.4271 26.3711 53.5195 26.2707 53.5834 26.1525C53.6474 26.0344 53.6809 25.9022 53.6809 25.7678V22.8297H49.6383ZM48.0213 21.2127H55.2979V25.7678C55.2978 26.1709 55.1971 26.5677 55.0052 26.9221C54.8132 27.2766 54.5359 27.5776 54.1983 27.798L51.6596 29.4571L49.1209 27.798C48.7833 27.5776 48.506 27.2766 48.314 26.9221C48.1221 26.5677 48.0214 26.1709 48.0213 25.7678V21.2127ZM42.766 23.2339C41.9083 23.2339 41.0857 23.5747 40.4792 24.1812C39.8727 24.7877 39.5319 25.6103 39.5319 26.468H46.4447V28.085H37.9149V26.468C37.9149 25.1814 38.426 23.9475 39.3358 23.0378C40.2455 22.128 41.4794 21.6169 42.766 21.6169H46.4043V23.2339H42.766Z" fill="white"/>
</g>
<defs>
<clipPath id="clip0_154_110">
<rect width="19.4043" height="19.4043" fill="white" transform="translate(36.2979 10.2979)"/>
</clipPath>
</defs>
</svg>
