<svg width="537" height="168" viewBox="0 0 537 168" fill="none" xmlns="http://www.w3.org/2000/svg">
<path d="M82.2852 49.9154H13C6.37258 49.9154 1 55.2879 1 61.9154V155C1 161.627 6.37257 167 13 167H524C530.627 167 536 161.627 536 155V13C536 6.37258 530.627 1 524 1H106.285C99.6578 1 94.2852 6.37257 94.2852 13V37.9154C94.2852 44.5428 88.9126 49.9154 82.2852 49.9154Z" fill="white" stroke="#D4CFCF" stroke-opacity="0.78"/>
<rect x="27" y="1" width="38" height="38" rx="19" fill="#C40002"/>
<path d="M49.2341 15.149C49.2341 13.6241 49.2341 12.8625 48.7603 12.3887C48.2865 11.9149 47.5249 11.9149 46 11.9149C44.4752 11.9149 43.7136 11.9149 43.2398 12.3887C42.766 12.8625 42.766 13.6241 42.766 15.149M37.9149 21.617C37.9149 18.5682 37.9149 17.0433 38.8625 16.0965C39.8101 15.1498 41.3341 15.149 44.383 15.149H47.617C50.6659 15.149 52.1908 15.149 53.1376 16.0965C54.0843 17.0441 54.0851 18.5682 54.0851 21.617C54.0851 24.6659 54.0851 26.1908 53.1376 27.1376C52.19 28.0843 50.6659 28.0851 47.617 28.0851H44.383C41.3341 28.0851 39.8093 28.0851 38.8625 27.1376C37.9157 26.19 37.9149 24.6659 37.9149 21.617Z" stroke="white" stroke-width="1.21277"/>
<path d="M46 24.3119C46.8934 24.3119 47.617 23.7087 47.617 22.9649C47.617 22.2211 46.8934 21.6171 46 21.6171C45.1066 21.6171 44.383 21.014 44.383 20.2693C44.383 19.5255 45.1066 18.9223 46 18.9223M46 24.3119C45.1066 24.3119 44.383 23.7087 44.383 22.9649M46 24.3119V24.8511M46 18.9223V18.3831M46 18.9223C46.8934 18.9223 47.617 19.5255 47.617 20.2693" stroke="white" stroke-width="1.21277" stroke-linecap="round"/>
</svg>
