<svg width="21" height="18" viewBox="0 0 21 18" fill="none" xmlns="http://www.w3.org/2000/svg">
<path d="M11.405 5.55867L11.405 5.55862C11.4194 4.77251 11.7418 4.02346 12.3028 3.47265C12.8639 2.92185 13.6188 2.61332 14.405 2.61344L11.405 5.55867ZM11.405 5.55867L11.377 7.13351M11.405 5.55867L11.377 7.13351M3.25811 4.52073L3.39001 4.63062C5.26679 6.19427 7.21781 7.13039 9.24946 7.40735C9.24947 7.40736 9.24949 7.40736 9.24951 7.40736L10.8104 7.61934L3.25811 4.52073ZM3.25811 4.52073L3.22759 4.68967M3.25811 4.52073L3.22759 4.68967M3.22759 4.68967C2.92576 6.36034 3.0683 7.78302 3.6479 9.01392C4.22718 10.2441 5.23827 11.2727 6.65577 12.1641L6.65579 12.1641M3.22759 4.68967L6.65579 12.1641M6.65579 12.1641L8.40279 13.2621L8.454 13.1806M6.65579 12.1641L8.454 13.1806M8.454 13.1806L8.40279 13.2621C8.47196 13.3056 8.52943 13.3653 8.57016 13.4362C8.6109 13.507 8.63366 13.5867 8.63645 13.6683C8.63925 13.75 8.622 13.8311 8.5862 13.9045C8.55041 13.978 8.49716 14.0415 8.43112 14.0896L8.43101 14.0897M8.454 13.1806L8.43101 14.0897M8.43101 14.0897L6.83901 15.2527L6.61542 15.416M8.43101 14.0897L6.61542 15.416M6.61542 15.416L6.89178 15.4333M6.61542 15.416L6.89178 15.4333M6.89178 15.4333C7.8449 15.4926 8.75288 15.4506 9.50946 15.3005L9.50958 15.3005M6.89178 15.4333L9.50958 15.3005M9.50958 15.3005C11.8886 14.8255 13.8745 13.6915 15.2652 11.9332M9.50958 15.3005L15.2652 11.9332M11.377 7.13351C11.3757 7.20398 11.3594 7.27336 11.3293 7.33711C11.2993 7.40086 11.2561 7.45753 11.2026 7.50341C11.149 7.54928 11.0864 7.58333 11.0188 7.60331C10.9513 7.62328 10.8803 7.62875 10.8105 7.61935L11.377 7.13351ZM15.2652 11.9332C16.6557 10.1751 17.445 7.80051 17.445 4.85444M15.2652 11.9332L17.445 4.85444M17.445 4.85444C17.445 4.70884 17.3714 4.49689 17.244 4.26938M17.445 4.85444L17.244 4.26938M17.244 4.26938C17.1142 4.03775 16.9215 3.77724 16.6673 3.53265M17.244 4.26938L16.6673 3.53265M16.6673 3.53265C16.1587 3.04304 15.3999 2.61345 14.405 2.61344L16.6673 3.53265ZM18.9978 2.25058C19.3818 2.19604 19.8285 2.05561 20.416 1.72321C20.1101 3.20742 19.9321 3.8798 19.2642 4.79552L19.245 4.82185V4.85444C19.245 8.65369 18.078 11.4689 16.3258 13.4519C14.5726 15.436 12.2277 16.5934 9.86243 17.0654C8.24529 17.388 6.2544 17.2849 4.49643 16.9228C3.61813 16.7418 2.80077 16.4967 2.11983 16.2096C1.53727 15.9639 1.06009 15.6897 0.729559 15.4025C1.16065 15.3604 1.9114 15.2656 2.74366 15.072C3.74355 14.8393 4.87173 14.4616 5.70306 13.8531L5.81918 13.7681L5.69904 13.689C5.65724 13.6614 5.61178 13.6318 5.56301 13.6C4.80477 13.106 3.24648 12.0907 2.23155 10.2287C1.16714 8.2759 0.692566 5.37511 2.41362 1.13808C4.07889 3.05563 5.7726 4.37217 7.49504 5.07896L7.49505 5.07896C8.07662 5.31752 8.44255 5.43589 8.73185 5.50357C8.95087 5.5548 9.12608 5.57679 9.31173 5.60009C9.37034 5.60745 9.42998 5.61493 9.49238 5.62351L9.78722 5.66405L9.60594 5.48293C9.63096 4.55356 9.92538 3.65111 10.4539 2.88547C10.9904 2.10822 11.7442 1.5065 12.6211 1.15566C13.4979 0.804812 14.4588 0.720435 15.3833 0.913089C16.3079 1.10574 17.1551 1.56687 17.8189 2.23872L17.8485 2.26874L17.8907 2.26844C17.9934 2.26772 18.0972 2.27124 18.2036 2.27484C18.4483 2.28314 18.7068 2.2919 18.9978 2.25058Z" fill="white" stroke="black" stroke-width="0.2"/>
</svg>
