<svg width="73" height="20" viewBox="0 0 73 20" fill="none" xmlns="http://www.w3.org/2000/svg">
<path d="M10.5407 3.16393C10.9465 3.27308 11.2973 3.54556 11.7239 3.87552L11.9714 4.06717C12.1739 4.22299 12.2222 4.25882 12.2705 4.28465C12.3224 4.31287 12.3772 4.3355 12.4339 4.35214C12.4863 4.36798 12.5455 4.37714 12.7988 4.41047L13.1096 4.44963C13.6446 4.51796 14.0845 4.57379 14.4487 4.78294C14.7678 4.96625 15.0319 5.23039 15.2152 5.54953C15.4244 5.91282 15.4802 6.35362 15.5485 6.88856L15.5885 7.19937C15.621 7.45267 15.6302 7.51184 15.646 7.56433C15.6627 7.62099 15.6849 7.67543 15.7127 7.72765C15.7394 7.77598 15.7752 7.82431 15.931 8.02679L16.1227 8.27426C16.4526 8.70089 16.7251 9.05169 16.8343 9.45748C16.9298 9.81224 16.9298 10.1859 16.8343 10.5407C16.7251 10.9465 16.4526 11.2973 16.1227 11.7239L15.931 11.9714C15.7752 12.1739 15.7394 12.2222 15.7135 12.2705C15.6852 12.3228 15.6627 12.3772 15.646 12.4339C15.6302 12.4863 15.621 12.5455 15.5877 12.7988L15.5485 13.1096C15.4802 13.6446 15.4244 14.0845 15.2152 14.4487C15.0319 14.7674 14.7674 15.0319 14.4487 15.2152C14.0854 15.4244 13.6446 15.4802 13.1096 15.5485L12.7988 15.5885C12.5455 15.621 12.4863 15.6302 12.4339 15.646C12.3772 15.6627 12.3228 15.6849 12.2705 15.7127C12.2222 15.7394 12.1739 15.7752 11.9714 15.931L11.7239 16.1227C11.2973 16.4526 10.9465 16.7251 10.5407 16.8343C10.1859 16.9298 9.81224 16.9298 9.45748 16.8343C9.05169 16.7251 8.70089 16.4526 8.27426 16.1227L8.02679 15.931C7.82431 15.7752 7.77598 15.7394 7.72765 15.7135C7.67576 15.6853 7.62101 15.6627 7.56433 15.646C7.51184 15.6302 7.45267 15.621 7.19937 15.5877L6.88856 15.5485C6.35362 15.4802 5.91366 15.4244 5.54953 15.2152C5.23082 15.0319 4.96633 14.7674 4.78294 14.4487C4.57379 14.0854 4.51796 13.6446 4.44963 13.1096L4.40964 12.7988C4.37714 12.5455 4.36798 12.4863 4.35214 12.4339C4.33577 12.3772 4.31342 12.3225 4.28548 12.2705C4.25882 12.2222 4.22299 12.1739 4.06717 11.9714L3.87552 11.7239C3.54556 11.2973 3.27308 10.9465 3.16393 10.5407C3.0684 10.1859 3.0684 9.81224 3.16393 9.45748C3.27308 9.05169 3.54556 8.70089 3.87552 8.27426L4.06717 8.02679C4.22299 7.82431 4.25882 7.77598 4.28465 7.72765C4.31287 7.67576 4.3355 7.62101 4.35214 7.56433C4.36798 7.51184 4.37714 7.45267 4.41047 7.19937L4.44963 6.88856C4.51796 6.35362 4.57379 5.91366 4.78294 5.54953C4.96633 5.23082 5.23082 4.96633 5.54953 4.78294C5.91282 4.57379 6.35362 4.51796 6.88856 4.44963L7.19937 4.40964C7.45267 4.37714 7.51184 4.36798 7.56433 4.35214C7.62097 4.33577 7.67572 4.31342 7.72765 4.28548C7.77598 4.25882 7.82431 4.22299 8.02679 4.06717L8.27426 3.87552C8.70089 3.54556 9.05169 3.27308 9.45748 3.16393C9.81224 3.0684 10.1859 3.0684 10.5407 3.16393ZM13.088 7.74348C12.9317 7.58727 12.7198 7.49951 12.4988 7.49951C12.2779 7.49951 12.066 7.58727 11.9097 7.74348L9.16584 10.4874L8.08845 9.40998C7.93129 9.2582 7.72081 9.17421 7.50234 9.17611C7.28386 9.17801 7.07487 9.26564 6.92038 9.42013C6.76589 9.57463 6.67825 9.78362 6.67636 10.0021C6.67446 10.2206 6.75844 10.431 6.91023 10.5882L8.57673 12.2547C8.73299 12.4109 8.94489 12.4987 9.16584 12.4987C9.38679 12.4987 9.59869 12.4109 9.75495 12.2547L13.088 8.9217C13.2442 8.76544 13.3319 8.55354 13.3319 8.33259C13.3319 8.11164 13.2442 7.89974 13.088 7.74348Z" fill="#04C900" fill-opacity="0.64"/>
<path d="M27.3994 6.36035L25.0605 13.499H22.79L20.4609 6.36035H22.6289L23.6006 9.97852C23.6364 10.1152 23.6771 10.291 23.7227 10.5059C23.7715 10.7174 23.8154 10.929 23.8545 11.1406C23.8968 11.3522 23.9229 11.5247 23.9326 11.6582C23.9456 11.5247 23.9701 11.3538 24.0059 11.1455C24.0417 10.9372 24.0807 10.7288 24.123 10.5205C24.1686 10.3089 24.2109 10.1348 24.25 9.99805L25.2412 6.36035H27.3994ZM30.5537 7.86914C31.0908 7.86914 31.5547 7.96354 31.9453 8.15234C32.3359 8.33789 32.637 8.61784 32.8486 8.99219C33.0602 9.36654 33.166 9.83529 33.166 10.3984V11.248H29.7529C29.7692 11.5378 29.8766 11.7754 30.0752 11.9609C30.277 12.1465 30.5732 12.2393 30.9639 12.2393C31.3089 12.2393 31.6247 12.2051 31.9111 12.1367C32.2008 12.0684 32.4987 11.9626 32.8047 11.8193V13.1914C32.5378 13.3314 32.2464 13.4339 31.9307 13.499C31.6149 13.5641 31.2161 13.5967 30.7344 13.5967C30.1777 13.5967 29.6797 13.4974 29.2402 13.2988C28.8008 13.1003 28.4541 12.7926 28.2002 12.376C27.9495 11.9593 27.8242 11.4238 27.8242 10.7695C27.8242 10.1055 27.9382 9.56022 28.166 9.13379C28.3939 8.7041 28.7129 8.38672 29.123 8.18164C29.5332 7.97331 30.0101 7.86914 30.5537 7.86914ZM30.6221 9.16797C30.3975 9.16797 30.2087 9.23958 30.0557 9.38281C29.9059 9.52279 29.818 9.74414 29.792 10.0469H31.4326C31.4294 9.88411 31.3968 9.736 31.335 9.60254C31.2731 9.46908 31.182 9.36328 31.0615 9.28516C30.9443 9.20703 30.7979 9.16797 30.6221 9.16797ZM37.585 7.86914C37.6891 7.86914 37.7982 7.87728 37.9121 7.89355C38.026 7.90658 38.1107 7.91797 38.166 7.92773L37.9951 9.72949C37.9333 9.71322 37.8535 9.7002 37.7559 9.69043C37.6582 9.67741 37.5215 9.6709 37.3457 9.6709C37.2253 9.6709 37.0967 9.68229 36.96 9.70508C36.8232 9.72786 36.693 9.77669 36.5693 9.85156C36.4489 9.92318 36.3496 10.0339 36.2715 10.1836C36.1934 10.3301 36.1543 10.5286 36.1543 10.7793V13.499H34.2451V7.9668H35.666L35.9639 8.85059H36.0566C36.1576 8.66829 36.2861 8.50391 36.4424 8.35742C36.6019 8.20768 36.7793 8.08887 36.9746 8.00098C37.1732 7.91309 37.3766 7.86914 37.585 7.86914ZM40.8613 7.9668V13.499H38.9521V7.9668H40.8613ZM39.9141 5.74023C40.1875 5.74023 40.4251 5.7972 40.627 5.91113C40.832 6.02507 40.9346 6.2513 40.9346 6.58984C40.9346 6.91862 40.832 7.1416 40.627 7.25879C40.4251 7.37272 40.1875 7.42969 39.9141 7.42969C39.6341 7.42969 39.3949 7.37272 39.1963 7.25879C39.001 7.1416 38.9033 6.91862 38.9033 6.58984C38.9033 6.2513 39.001 6.02507 39.1963 5.91113C39.3949 5.7972 39.6341 5.74023 39.9141 5.74023ZM45.5732 9.39746H44.3965V13.499H42.4873V9.39746H41.7549V8.45996L42.5264 7.99121V7.89844C42.5264 7.41992 42.5898 7.03092 42.7168 6.73145C42.8438 6.42871 43.0456 6.20573 43.3223 6.0625C43.599 5.91927 43.9603 5.84766 44.4062 5.84766C44.6927 5.84766 44.9515 5.87044 45.1826 5.91602C45.417 5.96159 45.6611 6.02669 45.915 6.11133L45.5049 7.34668C45.4105 7.32064 45.3047 7.29785 45.1875 7.27832C45.0736 7.25879 44.9499 7.24902 44.8164 7.24902C44.6699 7.24902 44.5625 7.2946 44.4941 7.38574C44.429 7.47363 44.3965 7.61849 44.3965 7.82031V7.9668H45.5732V9.39746ZM48.2441 7.9668V13.499H46.335V7.9668H48.2441ZM47.2969 5.74023C47.5703 5.74023 47.8079 5.7972 48.0098 5.91113C48.2148 6.02507 48.3174 6.2513 48.3174 6.58984C48.3174 6.91862 48.2148 7.1416 48.0098 7.25879C47.8079 7.37272 47.5703 7.42969 47.2969 7.42969C47.0169 7.42969 46.7777 7.37272 46.5791 7.25879C46.3838 7.1416 46.2861 6.91862 46.2861 6.58984C46.2861 6.2513 46.3838 6.02507 46.5791 5.91113C46.7777 5.7972 47.0169 5.74023 47.2969 5.74023ZM52.0674 7.86914C52.6045 7.86914 53.0684 7.96354 53.459 8.15234C53.8496 8.33789 54.1507 8.61784 54.3623 8.99219C54.5739 9.36654 54.6797 9.83529 54.6797 10.3984V11.248H51.2666C51.2829 11.5378 51.3903 11.7754 51.5889 11.9609C51.7907 12.1465 52.0869 12.2393 52.4775 12.2393C52.8226 12.2393 53.1383 12.2051 53.4248 12.1367C53.7145 12.0684 54.0124 11.9626 54.3184 11.8193V13.1914C54.0514 13.3314 53.7601 13.4339 53.4443 13.499C53.1286 13.5641 52.7298 13.5967 52.248 13.5967C51.6914 13.5967 51.1934 13.4974 50.7539 13.2988C50.3145 13.1003 49.9678 12.7926 49.7139 12.376C49.4632 11.9593 49.3379 11.4238 49.3379 10.7695C49.3379 10.1055 49.4518 9.56022 49.6797 9.13379C49.9076 8.7041 50.2266 8.38672 50.6367 8.18164C51.0469 7.97331 51.5238 7.86914 52.0674 7.86914ZM52.1357 9.16797C51.9111 9.16797 51.7223 9.23958 51.5693 9.38281C51.4196 9.52279 51.3317 9.74414 51.3057 10.0469H52.9463C52.943 9.88411 52.9105 9.736 52.8486 9.60254C52.7868 9.46908 52.6956 9.36328 52.5752 9.28516C52.458 9.20703 52.3115 9.16797 52.1357 9.16797ZM57.4775 13.5967C56.9079 13.5967 56.4391 13.3542 56.0713 12.8691C55.7035 12.3841 55.5195 11.6745 55.5195 10.7402C55.5195 9.79622 55.7083 9.08171 56.0859 8.59668C56.4635 8.11165 56.9518 7.86914 57.5508 7.86914C57.7982 7.86914 58.0114 7.90495 58.1904 7.97656C58.3695 8.04818 58.5241 8.14583 58.6543 8.26953C58.7878 8.38997 58.9033 8.52669 59.001 8.67969H59.04C59.0173 8.53971 58.9961 8.34766 58.9766 8.10352C58.957 7.85612 58.9473 7.61523 58.9473 7.38086V5.90137H60.8711V13.499H59.4307L59.0205 12.8008H58.9473C58.8594 12.9473 58.7487 13.0807 58.6152 13.2012C58.485 13.3216 58.3255 13.4176 58.1367 13.4893C57.9512 13.5609 57.7314 13.5967 57.4775 13.5967ZM58.2588 12.0879C58.5648 12.0879 58.7796 11.9919 58.9033 11.7998C59.0303 11.6045 59.0986 11.3083 59.1084 10.9111V10.7598C59.1084 10.3236 59.0465 9.98991 58.9229 9.75879C58.8024 9.52441 58.5745 9.40723 58.2393 9.40723C58.0114 9.40723 57.8226 9.5179 57.6729 9.73926C57.5231 9.96061 57.4482 10.304 57.4482 10.7695C57.4482 11.2285 57.5231 11.5638 57.6729 11.7754C57.8258 11.9837 58.0212 12.0879 58.2588 12.0879Z" fill="#04C900" fill-opacity="0.64"/>
</svg>
